<?xml version="1.0" standalone="no"?>
<!DOCTYPE svg PUBLIC "-//W3C//DTD SVG 20010904//EN"
 "http://www.w3.org/TR/2001/REC-SVG-20010904/DTD/svg10.dtd">
<svg version="1.0" xmlns="http://www.w3.org/2000/svg"
 width="1024.000000pt" height="1024.000000pt" viewBox="0 0 1024.000000 1024.000000"
 preserveAspectRatio="xMidYMid meet">

<g transform="translate(0.000000,1024.000000) scale(0.100000,-0.100000)"
fill="#000000" stroke="none">
<path d="M4965 7584 c-22 -2 -107 -8 -190 -14 -326 -25 -647 -90 -940 -191
-146 -50 -379 -150 -402 -172 -19 -19 -27 -518 -14 -807 14 -300 23 -382 62
-580 55 -282 116 -464 236 -704 255 -510 673 -923 1217 -1201 139 -72 175 -86
201 -82 18 3 86 32 151 65 326 163 557 330 793 575 126 131 142 149 239 284
283 390 427 778 503 1353 16 127 24 1051 9 1080 -13 25 -153 94 -320 158 -118
45 -332 109 -490 147 -278 65 -791 109 -1055 89z m661 -83 c361 -43 729 -142
1032 -278 l122 -55 0 -402 c0 -495 -20 -750 -76 -1001 -120 -532 -357 -956
-740 -1325 -192 -186 -431 -353 -683 -480 l-158 -78 -164 85 c-299 154 -487
290 -709 513 -236 235 -405 481 -540 784 -115 258 -182 533 -220 904 -9 86
-18 892 -11 990 1 7 40 30 89 53 352 164 809 276 1252 309 194 14 613 4 806
-19z"/>
<path d="M4770 7403 c-161 -9 -494 -67 -653 -113 -209 -62 -449 -149 -502
-184 l-25 -16 0 -363 c0 -442 16 -667 67 -925 16 -82 17 -83 57 -104 22 -11
59 -41 82 -66 l41 -44 6 50 c7 56 41 132 83 181 15 18 61 55 103 83 144 97
183 142 204 234 l13 57 26 -44 c50 -85 63 -143 63 -279 -1 -116 -3 -131 -31
-201 -17 -42 -63 -125 -102 -185 -149 -230 -166 -302 -99 -437 57 -116 167
-222 289 -281 109 -52 169 -66 282 -66 102 0 211 27 308 76 209 104 329 255
440 553 73 199 145 275 355 377 103 51 139 74 154 98 23 37 25 103 5 151 -24
57 -151 234 -161 224 -2 -3 -27 -56 -56 -119 -136 -302 -180 -374 -321 -520
l-108 -111 0 -57 c0 -34 -8 -74 -19 -98 -28 -61 -41 -64 -41 -10 0 25 -3 47
-8 49 -13 9 -59 -37 -96 -95 -42 -67 -56 -78 -56 -45 0 70 50 168 141 277 21
25 75 113 120 195 45 83 99 175 119 205 58 85 67 108 105 256 52 200 84 304
105 342 18 30 18 32 2 32 -25 0 -65 -29 -126 -91 -70 -72 -127 -99 -210 -99
-35 0 -83 7 -106 15 -79 28 -145 12 -174 -43 l-15 -27 -1 35 c0 20 7 46 16 59
22 30 89 61 137 61 46 0 115 32 150 68 l27 28 -98 -12 c-159 -19 -162 -20
-303 -122 -117 -85 -214 -103 -306 -57 -28 14 -54 33 -57 41 -5 12 -2 13 16 3
63 -34 165 -27 229 15 21 14 57 54 80 88 23 35 53 75 67 91 54 58 -33 13 -105
-55 -92 -86 -190 -111 -272 -68 -40 20 -81 74 -81 106 0 16 2 16 16 -4 23 -33
67 -52 121 -52 63 0 103 25 146 93 36 56 84 99 125 112 44 13 10 25 -60 20
-58 -5 -88 -14 -174 -56 -56 -27 -129 -55 -161 -61 -128 -23 -223 44 -223 159
l0 38 19 -42 c37 -79 134 -100 230 -48 28 16 57 36 66 45 14 16 10 17 -57 16
-120 0 -184 52 -175 142 6 54 22 73 23 27 2 -97 143 -122 283 -50 25 13 86 44
135 69 l88 44 -45 7 c-50 8 -152 -14 -201 -44 -17 -10 -44 -22 -61 -25 l-30
-8 36 28 35 28 -38 37 c-31 30 -38 43 -38 75 l0 39 20 -33 c20 -33 54 -52 91
-52 12 0 68 24 126 53 103 50 108 52 187 51 45 -1 101 -7 125 -13 23 -7 45
-11 47 -9 4 5 -97 86 -145 115 -44 28 -111 39 -151 25 -38 -14 -39 -2 -1 21
75 44 160 30 288 -47 85 -51 162 -70 264 -64 66 3 88 10 205 65 167 80 221 87
368 49 54 -14 107 -33 118 -42 27 -25 43 -86 29 -112 -9 -17 -6 -37 14 -99 14
-43 35 -91 47 -107 19 -26 19 -30 5 -41 -12 -8 -17 -30 -18 -76 -1 -35 -7 -70
-12 -77 -7 -8 -32 -12 -75 -11 -81 2 -102 -16 -102 -91 0 -51 14 -69 81 -97
15 -6 44 -32 65 -58 22 -25 72 -69 112 -97 41 -28 83 -64 93 -82 27 -42 20
-103 -17 -159 -16 -23 -29 -59 -31 -80 -2 -21 -23 -98 -47 -170 -60 -180 -62
-187 -90 -393 -31 -227 -69 -365 -146 -520 -72 -146 -148 -252 -261 -359 -173
-165 -375 -272 -604 -320 -118 -25 -345 -23 -450 3 -44 11 -81 19 -83 17 -12
-12 269 -183 403 -246 l84 -40 83 42 c202 101 468 279 623 417 204 181 403
438 529 683 170 330 169 390 -8 515 l-94 66 21 51 c11 29 22 53 23 55 7 11 71
-38 155 -117 l97 -90 15 57 c66 239 96 638 90 1193 l-3 216 -107 46 c-310 132
-668 222 -1002 252 -158 14 -589 18 -781 8z"/>
</g>
</svg>
